<?xml version="1.0" encoding="iso-8859-1"?>
<!-- Uploaded to: SVG Repo, www.svgrepo.com, Generator: SVG Repo Mixer Tools -->
<svg height="800px" width="800px" version="1.1" id="Layer_1" xmlns="http://www.w3.org/2000/svg" xmlns:xlink="http://www.w3.org/1999/xlink" 
	 viewBox="0 0 512 512" xml:space="preserve">
<path style="fill:#DD5323;" d="M506.458,421.551L291.801,49.753c-15.911-27.559-55.69-27.559-71.601,0L5.542,421.551
	c-15.746,27.274,3.937,61.365,35.429,61.365h430.058C502.521,482.916,522.204,448.825,506.458,421.551z M166.215,369.696
	L256,214.185l89.784,155.511H166.215z"/>
<path style="fill:#BF0F36;" d="M506.458,421.551L291.801,49.753C283.845,35.974,269.922,29.084,256,29.084v185.102l0.001-0.001
	l89.784,155.511H256v113.22h215.029C502.521,482.916,522.204,448.825,506.458,421.551z"/>
<circle style="fill:#F1F1F1;" cx="256" cy="71.736" r="17.864"/>
<path style="fill:#D7D7D7;" d="M273.861,71.739c0,9.864-7.996,17.861-17.861,17.861c0-14.333,0-24.111,0-35.721
	C265.864,53.879,273.861,61.875,273.861,71.739z"/>
<circle style="fill:#F1F1F1;" cx="46.48" cy="449.258" r="17.864"/>
<circle style="fill:#D7D7D7;" cx="465.519" cy="449.258" r="17.864"/>
<g>
	<polygon style="fill:#9D092B;" points="302.676,68.59 295.801,56.683 230.252,170.219 238.14,180.37 	"/>
	<path style="fill:#9D092B;" d="M506.458,421.551l-6.302-10.916H11.844l-6.302,10.916c-0.189,0.328-0.349,0.661-0.529,0.992h501.974
		C506.808,422.213,506.647,421.879,506.458,421.551z"/>
</g>
<path style="fill:#E69824;" d="M427.429,422.542H84.571l171.43-296.926L427.429,422.542z M166.215,369.696h179.568L256,214.185
	L166.215,369.696z"/>
<polygon style="fill:#DD5323;" points="256.001,125.617 256.001,214.185 345.785,369.696 256.001,369.696 256.001,422.542 
	427.429,422.542 "/>
</svg>